<svg xmlns="http://www.w3.org/2000/svg" width="531.327" height="597.869" viewBox="0 0 531.327 597.869">
  <g id="Group_4" data-name="Group 4" transform="translate(-617 -352)">
    <path id="Path_22" data-name="Path 22" d="M340.267,484.389H156.2a9.022,9.022,0,0,1,0-18.045H340.267a9.022,9.022,0,1,1,0,18.045Zm0,0" transform="translate(641.684 430.212)" fill="rgba(86,227,159,0.81)"/>
    <path id="Exclusion_2" data-name="Exclusion 2" d="M44.287,88.582a44.3,44.3,0,0,1-17.238-85.1A44.291,44.291,0,0,1,75.606,75.61,44.15,44.15,0,0,1,44.287,88.582Zm0-59.193a14.906,14.906,0,1,0,10.541,4.365A14.8,14.8,0,0,0,44.287,29.388Z" transform="translate(709.308 861.287)" fill="#56e39f"/>
    <path id="Exclusion_1" data-name="Exclusion 1" d="M44.291,88.582A44.3,44.3,0,0,1,27.05,3.481,44.3,44.3,0,0,1,61.53,85.1,44.007,44.007,0,0,1,44.291,88.582Zm0-59.193a14.905,14.905,0,1,0,10.537,4.365A14.809,14.809,0,0,0,44.291,29.388Z" transform="translate(981.951 861.287)" fill="#56e39f"/>
    <path id="Path_27" data-name="Path 27" d="M455.079,482.552H69.583a9.816,9.816,0,0,1-9.716-8.4l-39.9-272.447a9.818,9.818,0,0,1,9.716-11.239h465.3a9.818,9.818,0,0,1,9.716,11.239l-39.9,272.447A9.816,9.816,0,0,1,455.079,482.552Zm0,0" transform="translate(620.331 383.944)" fill="#56e39f"/>
    <path id="Path_28" data-name="Path 28" d="M445.885,201.7l-39.9,272.447a9.83,9.83,0,0,1-9.716,8.4h-25.7a9.813,9.813,0,0,0,9.716-8.4l39.9-272.447a9.806,9.806,0,0,0-9.716-11.23h25.7A9.818,9.818,0,0,1,445.885,201.7Zm0,0" transform="translate(679.148 383.945)" fill="#56e39f"/>
    <path id="Path_29" data-name="Path 29" d="M108.344,190.469H386.638V319.2a29.857,29.857,0,0,1-59.713,0V283.329a24.789,24.789,0,0,0-49.578,0v25.913a29.861,29.861,0,0,1-59.722,0V284.556a24.784,24.784,0,0,0-49.568,0V385.522a29.857,29.857,0,1,1-59.713,0Zm0,0" transform="translate(635.171 383.944)" fill="#695a69"/>
    <path id="Path_33" data-name="Path 33" d="M531.264,234.072a31.935,31.935,0,0,1-55.84,19.071,52.382,52.382,0,0,1-67.093-7.449,93.217,93.217,0,0,1-92.573,7.312,128.842,128.842,0,0,1-30.242,5.2c-2.212.119-4.434.169-6.682.169a128.609,128.609,0,0,1-73.411-22.875,79.44,79.44,0,0,1-100.633,9,44.656,44.656,0,0,1-57.163,6.349,27.21,27.21,0,1,1-20.417-45.2c.438,0,.867.009,1.3.032a44.673,44.673,0,0,1,42.293-36.605,79.522,79.522,0,0,1,53.386-65.415,44.665,44.665,0,1,1,61.889-64.379A129.172,129.172,0,0,1,407.5,117.611c19.363,1.72,37.5,15.509,40.605,38.6.041.319.082.639.119.962a52.29,52.29,0,0,1,49.646,42.954c.5-.023,1.013-.046,1.514-.046A31.954,31.954,0,0,1,531.264,234.072Zm0,0" transform="translate(617 352)" fill="#9f8a8a"/>
    <path id="Path_34" data-name="Path 34" d="M490.257,211.221a31.935,31.935,0,0,1-55.84,19.071,52.382,52.382,0,0,1-67.093-7.449,93.217,93.217,0,0,1-92.573,7.312,128.842,128.842,0,0,1-30.242,5.2c115.065-17,159.954-59.024,175.047-99.105a52.524,52.524,0,0,1,37.3,41.034c.5-.023,1.013-.046,1.514-.046A31.954,31.954,0,0,1,490.257,211.221Zm0,0" transform="translate(658.007 374.85)" fill="#83727a"/>
    <path id="Path_35" data-name="Path 35" d="M113.2,154.731,98.574,125.826a30.97,30.97,0,0,1-2.532-21.087A36.017,36.017,0,0,0,93.424,80.2L76.228,46.2a.59.59,0,0,1,.26-.794l26.429-13.365,17.461,34.534a36.017,36.017,0,0,0,18.214,16.649,30.944,30.944,0,0,1,15.481,14.537l28.814,56.972Zm0,0" transform="translate(629.774 357.373)" fill="#56e39f"/>
    <path id="Path_36" data-name="Path 36" d="M80.275,58.929l32.746-16.558a12.749,12.749,0,1,0-11.508-22.752L68.771,36.177a12.748,12.748,0,1,0,11.5,22.752Zm0,0" transform="translate(627.36 355.06)" fill="#50efa2"/>
    <path id="Path_37" data-name="Path 37" d="M247.235,153.135a85.575,85.575,0,0,0-158.617,0Zm0,0" transform="translate(631.862 368.721)" fill="#9f8a8a"/>
    <path id="Path_39" data-name="Path 39" d="M298.234,103.541v75.477a6.808,6.808,0,0,0,11.622,4.812l75.477-75.477a6.809,6.809,0,0,0-4.817-11.622H305.04A6.807,6.807,0,0,0,298.234,103.541Zm0,0" transform="translate(667.018 368.223)" fill="#c6b2a9"/>
    <path id="Path_40" data-name="Path 40" d="M309.858,184.991l81.95-81.95a6.808,6.808,0,0,0-4.6-11.618L337.3,89.84a6.813,6.813,0,0,0-6.573,4.365l-32.044,83.533C296.056,184.6,304.663,190.186,309.858,184.991Zm0,0" transform="translate(667.012 367.067)" fill="#eae1dc"/>
    <path id="Path_41" data-name="Path 41" d="M366.92,186.165a55.9,55.9,0,0,0-103.607,0Zm0,0" transform="translate(661.161 377.369)" fill="#9f8a8a"/>
    <path id="Path_43" data-name="Path 43" d="M388.112,64.954a9.02,9.02,0,1,1-.1-18.04h.1a9.02,9.02,0,1,1,0,18.04Zm0,0" transform="translate(680.57 359.868)" fill="#83727a"/>
    <path id="Path_44" data-name="Path 44" d="M48.451,98.35a9.023,9.023,0,1,1-.1-18.045h.1a9.022,9.022,0,0,1,0,18.045Zm0,0" transform="translate(623.604 365.468)" fill="#695a69"/>
    <path id="Path_45" data-name="Path 45" d="M352.8,21.794a9.02,9.02,0,1,1-.1-18.04h.1a9.02,9.02,0,1,1,0,18.04Zm0,0" transform="translate(674.648 352.63)" fill="#695a69"/>
    <path id="Path_46" data-name="Path 46" d="M419.623,93.63a9.02,9.02,0,0,1-.151-18.04h.151a9.02,9.02,0,0,1,.055,18.04Zm0,0" transform="translate(685.855 364.677)" fill="#83727a"/>
  </g>
</svg>
