<svg xmlns="http://www.w3.org/2000/svg" width="531.688" height="545" viewBox="0 0 531.688 545">
  <path id="filter" d="M508.787,0H22.9A22.826,22.826,0,0,0,2.556,12.4a23.144,23.144,0,0,0,1.8,24.088L182.362,287.246c.059.086.124.168.184.254a50.836,50.836,0,0,1,9.985,30.178V522.122A22.729,22.729,0,0,0,215.258,545a23.434,23.434,0,0,0,8.964-1.8l100.026-38.137c8.959-2.74,14.908-11.2,14.908-21.376V317.677a50.868,50.868,0,0,1,9.98-30.178c.059-.086.124-.168.184-.254L527.331,36.478a23.124,23.124,0,0,0,1.8-24.077A22.813,22.813,0,0,0,508.787,0Zm0,0" transform="translate(0.001 0)" fill="#56e39f"/>
</svg>
