<svg xmlns="http://www.w3.org/2000/svg" width="533.067" height="533.071" viewBox="0 0 533.067 533.071">
  <g id="gear" transform="translate(-0.5)">
    <path id="Path_20" data-name="Path 20" d="M519.227,206.4l-64.06-6.544a199.116,199.116,0,0,0-7.955-19.2l40.674-49.927a15.963,15.963,0,0,0-1.09-21.372L424.213,46.775a15.962,15.962,0,0,0-21.372-1.086L360.9,79.856A17.006,17.006,0,0,1,343.581,82.2l-.374-.155a16.969,16.969,0,0,1-10.538-13.881l-5.5-53.819A15.963,15.963,0,0,0,311.289,0H222.782A15.96,15.96,0,0,0,206.9,14.344l-5.5,53.819a16.98,16.98,0,0,1-10.57,13.893l-.358.146a17,17,0,0,1-17.3-2.347L131.23,45.685a15.967,15.967,0,0,0-21.372,1.09L47.275,109.358a15.963,15.963,0,0,0-1.09,21.372l34.167,41.943a16.989,16.989,0,0,1,2.363,17.277l-.175.415A16.963,16.963,0,0,1,68.659,200.9L14.84,206.4A15.959,15.959,0,0,0,.5,222.282v88.506A15.959,15.959,0,0,0,14.84,326.67l53.823,5.5a16.965,16.965,0,0,1,13.881,10.55l.159.378a17,17,0,0,1-2.351,17.3L46.185,402.341a15.963,15.963,0,0,0,1.09,21.372L109.858,486.3a15.967,15.967,0,0,0,21.372,1.09l41.939-34.171a17,17,0,0,1,17.3-2.351l.395.163A16.969,16.969,0,0,1,201.4,464.908l5.495,53.819a15.969,15.969,0,0,0,15.882,14.344h88.51a15.969,15.969,0,0,0,15.882-14.344l5.495-53.819a16.971,16.971,0,0,1,10.55-13.885l.382-.155a16.985,16.985,0,0,1,17.3,2.347l41.939,34.171a15.967,15.967,0,0,0,21.372-1.09L486.8,423.713a15.967,15.967,0,0,0,1.086-21.372L453.715,360.4a17.014,17.014,0,0,1-2.343-17.321l.155-.37a16.968,16.968,0,0,1,13.881-10.538l53.819-5.5a15.959,15.959,0,0,0,14.34-15.882V222.282A15.956,15.956,0,0,0,519.227,206.4ZM267.04,394.089a127.552,127.552,0,1,1,127.55-127.55A127.694,127.694,0,0,1,267.04,394.089Zm0,0" transform="translate(0)" fill="#56e39f"/>
    <path id="Path_21" data-name="Path 21" d="M260.284,164.16A95.624,95.624,0,1,0,355.9,259.784,95.735,95.735,0,0,0,260.284,164.16Zm56.178,78.2-57.414,57.414a15.96,15.96,0,0,1-22.576,0l-32.365-32.365a15.964,15.964,0,0,1,22.576-22.576l21.079,21.075,46.124-46.124a15.964,15.964,0,0,1,22.576,22.576Zm0,0" transform="translate(6.756 6.756)" fill="#56e39f"/>
  </g>
</svg>
