<svg id="PlastPlace_Logo_white" xmlns="http://www.w3.org/2000/svg" width="645.001" height="287.536" viewBox="0 0 645.001 287.536">
  <path id="Path_1" data-name="Path 1" d="M27.652,94.178v51.38H0V7.1H50.4q24.517,0,36.976,11.769t12.45,31.965q0,19.815-12.842,31.576T50.4,94.178ZM71.777,50.833q0-10.389-5.687-15.883T47.461,29.459H27.652V72.015h19.81Q71.774,72.015,71.777,50.833Z" transform="translate(0 -5.141)" fill="#56e39f"/>
  <path id="Path_2" data-name="Path 2" d="M443.2,124.377h46.479v21.181H415.55V7.1H443.2Z" transform="translate(-300.884 -5.141)" fill="#56e39f"/>
  <path id="Path_3" data-name="Path 3" d="M809.51,117.393H753.387l-9.933,28.165H713.9L765.476,7.1h31.937l51.374,138.458H819.232Zm-7.536-21.228L781.345,37.05,760.714,96.165Z" transform="translate(-516.908 -5.141)" fill="#56e39f"/>
  <path id="Path_4" data-name="Path 4" d="M1310.327,122.078a37.945,37.945,0,0,1-15.693,14.318q-10.4,5.386-25.3,5.392a65.658,65.658,0,0,1-26.28-5,44.435,44.435,0,0,1-18.532-14.412,41.545,41.545,0,0,1-7.945-21.967H1246a22.464,22.464,0,0,0,6.766,14.023q5.786,5.588,15.394,5.6,8.632,0,13.245-4.608a16.031,16.031,0,0,0,4.611-11.865,15.558,15.558,0,0,0-3.724-10.687,27.224,27.224,0,0,0-9.423-6.78q-5.691-2.544-15.691-5.883A157.31,157.31,0,0,1,1236,71.678a38.988,38.988,0,0,1-14.024-12.257q-5.795-8.038-5.795-20.971,0-17.848,12.847-28.146T1263.065,0q21.963,0,35.018,10.591t14.806,28.24h-29.8a20.751,20.751,0,0,0-6.277-12.257q-5.1-4.807-13.925-4.8-7.642,0-12.355,4.018t-4.691,11.672a14.525,14.525,0,0,0,3.629,10.1,27.509,27.509,0,0,0,9.216,6.567,151.029,151.029,0,0,0,15.2,5.69,201.039,201.039,0,0,1,21.669,8.83A38.242,38.242,0,0,1,1309.77,81q5.886,8.234,5.886,21.57a37.531,37.531,0,0,1-5.328,19.506Z" transform="translate(-880.589)" fill="#56e39f"/>
  <path id="Path_5" data-name="Path 5" d="M1708.991,7.1V29.067h-38.24v116.49H1643.1V29.067H1605.05V7.1Z" transform="translate(-1162.156 -5.141)" fill="#56e39f"/>
  <path id="Path_6" data-name="Path 6" d="M333.082,623.128v51.38H305.43V536.05h50.4q24.511,0,36.975,11.769t12.453,31.965q0,19.816-12.845,31.576T355.83,623.128Zm44.125-43.345q0-10.389-5.69-15.883t-18.628-5.489H333.082v42.553h19.807Q377.2,600.965,377.207,579.783Z" transform="translate(-221.15 -388.133)" fill="#56e39f"/>
  <path id="Path_7" data-name="Path 7" d="M748.644,653.327H795.12v21.181H721V536.05h27.643Z" transform="translate(-522.049 -388.133)" fill="#56e39f"/>
  <path id="Path_8" data-name="Path 8" d="M1114.952,646.382H1058.82l-9.917,28.162H1019.35L1070.92,536.1h31.942l51.37,138.444h-29.57Zm-7.536-21.228-20.63-59.107-20.623,59.107Z" transform="translate(-738.072 -388.17)" fill="#56e39f"/>
  <path id="Path_9" data-name="Path 9" d="M1604.3,544.372q17.059,13.342,22.549,36.283h-29.028A38.041,38.041,0,0,0,1583.8,563q-9.513-6.482-22.845-6.474a36.121,36.121,0,0,0-33.538,21.181q-4.9,10.209-4.9,23.927,0,13.521,4.9,23.731a36.113,36.113,0,0,0,33.538,21.178q13.334,0,22.845-6.471a37.991,37.991,0,0,0,14.022-17.66h29.028q-5.487,22.953-22.549,36.283t-42.947,13.336q-19.813,0-35.01-8.924a60.723,60.723,0,0,1-23.529-25q-8.342-16.085-8.34-36.479,0-20.59,8.34-36.675a60.949,60.949,0,0,1,23.435-25q15.094-8.924,35.1-8.923Q1587.229,531.036,1604.3,544.372Z" transform="translate(-1082.088 -384.491)" fill="#56e39f"/>
  <path id="Path_10" data-name="Path 10" d="M2065.922,558.018v35.888h49.03v21.182h-49.03v37.251h54.913V674.5H2038.27V536.05h82.564v21.968Z" transform="translate(-1475.834 -388.133)" fill="#56e39f"/>
  <path id="Path_11" data-name="Path 11" d="M2020.48,7.1V29.067h65.505v83.154l10.982,10.982,10.986-10.982V7.1Z" transform="translate(-1462.952 -5.141)" fill="#56e39f"/>
  <path id="Path_12" data-name="Path 12" d="M21.967,711.226V628.073L10.982,617.09,0,628.073V733.194H73.808V711.226Z" transform="translate(0 -446.811)" fill="#56e39f"/>
</svg>
