<svg xmlns="http://www.w3.org/2000/svg" xmlns:xlink="http://www.w3.org/1999/xlink" width="442.262" height="439.273" viewBox="0 0 442.262 439.273">
  <defs>
    <filter id="Path_14" x="0" y="112.851" width="195.154" height="222.285" filterUnits="userSpaceOnUse">
      <feOffset dy="3" input="SourceAlpha"/>
      <feGaussianBlur stdDeviation="6" result="blur"/>
      <feFlood flood-opacity="0.161"/>
      <feComposite operator="in" in2="blur"/>
      <feComposite in="SourceGraphic"/>
    </filter>
    <filter id="Path_15" x="199.701" y="274.276" width="199.812" height="160.296" filterUnits="userSpaceOnUse">
      <feOffset dy="3" input="SourceAlpha"/>
      <feGaussianBlur stdDeviation="6" result="blur-2"/>
      <feFlood flood-opacity="0.161"/>
      <feComposite operator="in" in2="blur-2"/>
      <feComposite in="SourceGraphic"/>
    </filter>
    <filter id="Path_16" x="207.696" y="0" width="202.813" height="221.445" filterUnits="userSpaceOnUse">
      <feOffset dy="3" input="SourceAlpha"/>
      <feGaussianBlur stdDeviation="6" result="blur-3"/>
      <feFlood flood-opacity="0.161"/>
      <feComposite operator="in" in2="blur-3"/>
      <feComposite in="SourceGraphic"/>
    </filter>
  </defs>
  <g id="Group_3" data-name="Group 3" transform="translate(-614.738 -1123)">
    <g transform="matrix(1, 0, 0, 1, 614.74, 1123)" filter="url(#Path_14)">
      <path id="Path_14-2" data-name="Path 14" d="M157.442,204.8l-52.95,92.807L68.157,322.47l-50.176-24.86L6.7,274.741A62.875,62.875,0,0,1,8.445,215l41.6-72.589a12.794,12.794,0,0,1,7.707-5.716,11.658,11.658,0,0,1,9.445,1.243L152.965,187.9A12.266,12.266,0,0,1,157.442,204.8Zm0,0" transform="translate(18 -8.33)" fill="rgba(86,227,159,0.65)"/>
    </g>
    <g transform="matrix(1, 0, 0, 1, 614.74, 1123)" filter="url(#Path_15)">
      <path id="Path_15-2" data-name="Path 15" d="M404.8,412.278l-5.221,9.944a62.455,62.455,0,0,1-54.938,33.062H253.422a12.311,12.311,0,0,1-12.43-12.43V343.418a12.311,12.311,0,0,1,12.43-12.43h104.4l45.359,35.467Zm0,0" transform="translate(-23.29 -41.71)" fill="rgba(86,227,159,0.65)"/>
    </g>
    <g transform="matrix(1, 0, 0, 1, 614.74, 1123)" filter="url(#Path_16)">
      <path id="Path_16-2" data-name="Path 16" d="M411.19,133.741l-85.763,49.966a12.042,12.042,0,0,1-6.464,1.738,12.427,12.427,0,0,1-2.981-.5,12.8,12.8,0,0,1-7.707-5.716l-53.2-92.227L250.641,51.62,305.293,0H312.5a62.015,62.015,0,0,1,53.695,31.075l49.72,85.763A12.562,12.562,0,0,1,411.19,133.741Zm0,0" transform="translate(-24.94 15)" fill="rgba(86,227,159,0.65)"/>
    </g>
    <path id="Path_17" data-name="Path 17" d="M468.215,215,444.527,169.76,457.2,162.3a12.813,12.813,0,0,0,5.966-12.679,12.546,12.546,0,0,0-9.2-10.193c-6.464-1.738-92.473-23.118-103.66-26.1a12.484,12.484,0,0,0-14.919,8.7L306.309,225.193a12.61,12.61,0,0,0,4.477,13.178,12.389,12.389,0,0,0,13.919.994l12.43-7.458,31.813,61.732,46.981,81.29,53.533-98.941C479.4,257.1,479.152,233.4,468.215,215Zm0,0" transform="translate(580.323 1118.639)" fill="#56e39f"/>
    <path id="Path_18" data-name="Path 18" d="M274.269,379.295,199.69,304.716a11.785,11.785,0,0,0-13.42-2.732,12.389,12.389,0,0,0-7.707,11.433v12.43H21.7L66.7,415.837a61.928,61.928,0,0,0,55.685,34.305h56.18V463.4a12.389,12.389,0,0,0,7.707,11.433,11.893,11.893,0,0,0,13.42-2.732l74.579-75.408A12.012,12.012,0,0,0,274.269,379.295Zm0,0" transform="translate(629.02 1086.43)" fill="#56e39f"/>
    <path id="Path_19" data-name="Path 19" d="M270.251,0H162.609c-21.221,0-42.579,11.488-53.695,31.075L77.341,85.763l-12.43-7.458a12.389,12.389,0,0,0-13.919.994,12.6,12.6,0,0,0-4.477,13.174c.722,2.56,30.968,109.846,29.087,103.168a12.559,12.559,0,0,0,14.913,8.7l103.663-26.1a12.546,12.546,0,0,0,9.2-10.193,12.806,12.806,0,0,0-5.966-12.676l-12.676-7.458,35.3-60.906Zm0,0" transform="translate(624.836 1138)" fill="#56e39f"/>
  </g>
</svg>
